<svg width="249" height="250" viewBox="0 0 249 250" fill="none" xmlns="http://www.w3.org/2000/svg">
<path d="M124.232 0.731445C55.621 0.731445 0 56.3524 0 124.963C0 193.574 55.621 249.195 124.232 249.195C192.844 249.195 248.464 193.574 248.464 124.963C248.464 56.3524 192.844 0.731445 124.232 0.731445ZM174.928 65.7714C187.323 58.6154 203.171 62.8624 210.327 75.2564C217.483 87.6514 213.236 103.499 200.842 110.655C188.447 117.811 172.599 113.565 165.443 101.17C158.287 88.7754 162.533 72.9274 174.928 65.7714ZM73.536 184.155C61.141 191.311 45.293 187.065 38.137 174.67C30.981 162.275 35.228 146.427 47.622 139.27C60.017 132.114 75.865 136.361 83.021 148.755C90.178 161.15 85.931 176.999 73.536 184.155ZM83.022 101.17C75.866 113.565 60.017 117.811 47.623 110.655C35.228 103.499 30.982 87.6504 38.138 75.2564C45.294 62.8614 61.143 58.6154 73.537 65.7714C85.931 72.9274 90.178 88.7754 83.022 101.17ZM124.232 224.377C109.92 224.377 98.318 212.775 98.318 198.463C98.318 184.151 109.92 172.549 124.232 172.549C138.544 172.549 150.146 184.151 150.146 198.463C150.146 212.775 138.544 224.377 124.232 224.377ZM104.232 124.963C104.232 113.917 113.186 104.963 124.232 104.963C135.278 104.963 144.232 113.917 144.232 124.963C144.232 136.009 135.278 144.963 124.232 144.963C113.187 144.963 104.232 136.009 104.232 124.963ZM124.232 77.3774C109.92 77.3774 98.318 65.7754 98.318 51.4634C98.318 37.1514 109.92 25.5494 124.232 25.5494C138.544 25.5494 150.146 37.1514 150.146 51.4634C150.146 65.7754 138.544 77.3774 124.232 77.3774ZM210.327 174.67C203.171 187.065 187.322 191.311 174.928 184.155C162.533 176.999 158.287 161.15 165.443 148.756C172.599 136.361 188.448 132.115 200.842 139.271C213.237 146.427 217.483 162.275 210.327 174.67Z" fill="white"/>
</svg>
